<svg fill="#ffffff" height="800px" width="800px" version="1.1" id="Layer_1" xmlns="http://www.w3.org/2000/svg" xmlns:xlink="http://www.w3.org/1999/xlink" viewBox="0 0 512 512" xml:space="preserve" stroke="#ffffff"><g id="SVGRepo_bgCarrier" stroke-width="0"></g><g id="SVGRepo_tracerCarrier" stroke-linecap="round" stroke-linejoin="round"></g><g id="SVGRepo_iconCarrier"><g><g><path d="M454.513,270.608h-337.88h-60.93L0,406.522h366.868c76.995,0,140.209-60.143,145.132-135.914H454.513z M154.74,351.267 h-45.728c-7.014,0-12.702-5.687-12.702-12.702c0-7.016,5.688-12.702,12.702-12.702h45.728c7.014,0,12.702,5.687,12.702,12.702 C167.442,345.58,161.754,351.267,154.74,351.267z M276.682,351.267h-45.728c-7.014,0-12.702-5.687-12.702-12.702 c0-7.016,5.688-12.702,12.702-12.702h45.728c7.014,0,12.702,5.687,12.702,12.702C289.384,345.58,283.696,351.267,276.682,351.267z M398.623,351.267h-45.728c-7.014,0-12.702-5.687-12.702-12.702c0-7.016,5.688-12.702,12.702-12.702h45.728 c7.014,0,12.702,5.687,12.702,12.702C411.326,345.58,405.638,351.267,398.623,351.267z"></path></g></g><g><g><path d="M345.642,199.95c-17.917-11.944-38.769-18.258-60.303-18.258H126.16v69.862h296.889L345.642,199.95z"></path></g></g><g><g><path d="M264.254,135.948c-5.705-18.225-22.369-30.47-41.466-30.47H126.16v57.16h146.448L264.254,135.948z"></path></g></g></g></svg>